<?xml version="1.0" encoding="utf-8"?>
<!-- Generator: Adobe Illustrator 23.0.1, SVG Export Plug-In . SVG Version: 6.00 Build 0)  -->
<svg version="1.1" id="Layer_1" xmlns="http://www.w3.org/2000/svg" xmlns:xlink="http://www.w3.org/1999/xlink" x="0px" y="0px"
	 viewBox="0 0 130.6 130.6" style="enable-background:new 0 0 130.6 130.6;" xml:space="preserve">
<title>bandcamp_icon</title>
<path d="M65.3,0C29.2,0,0,29.2,0,65.3s29.2,65.3,65.3,65.3s65.3-29.2,65.3-65.3S101.4,0,65.3,0C65.3,0,65.3,0,65.3,0z M105.4,41.9
	c-7.3,15.8-14.6,31.5-21.8,47.3c-0.2,0.6-0.8,0.9-1.3,0.8c-18.8,0-37.7,0-56.5,0h-1.1c0.6-1.3,1.1-2.5,1.7-3.7
	c6.9-15,13.8-29.9,20.7-44.9c0.2-0.5,0.7-0.8,1.2-0.8c19,0,37.9,0,56.9,0h0.9C105.8,41.1,105.6,41.5,105.4,41.9z"/>
</svg>
