<svg id="Layer_1" data-name="Layer 1" xmlns="http://www.w3.org/2000/svg" viewBox="0 0 130.62 130.62"><title>soundclud_icon</title><path d="M-16.38,222.07h0a65.7,65.7,0,0,0-27.31-26.88c-.58-.3-1.15-.6-1.73-.88l-.18-.09a58,58,0,0,0-5.69-2.4l-.22-.08c-.6-.22-1.21-.42-1.82-.62a65.26,65.26,0,0,0-20.5-3.3,65.31,65.31,0,0,0-65.31,65.31,65.31,65.31,0,0,0,65.31,65.31,65.05,65.05,0,0,0,45.14-18.14l.37-.33.16-.18a65.19,65.19,0,0,0,17.2-29,55.27,55.27,0,0,0,2-10.54,64.51,64.51,0,0,0,.4-7.12,65,65,0,0,0-7.85-31Zm-104.49,45.1c0-.12-.12-1.79-.38-5a48.21,48.21,0,0,1,.38-5h.76c.25,2.28.38,3.69.38,4.23,0,1.27-.13,3.18-.38,5.75Zm44.35-11.56v5.44q0,3.85-.38,11.56l-.82.38h-.38q-.89,0-1.14-2.34V239.06l.38-2h2v5.44l.38.75h-.38Q-76.53,251.57-76.52,255.61Zm-3.85,6.57a80.34,80.34,0,0,0-.38,8.85,8.48,8.48,0,0,1-.82,2h-.38a3.67,3.67,0,0,0-1.14-.76c0-4.51-.12-8.11-.38-10.81q.39-7.2.38-15.41v-4.3c.42-.75.8-1.13,1.14-1.13q1.2,0,1.2,4.23v2.34Q-80.75,255.3-80.37,262.18Zm-4.24,6.57c-.33,0-.61,1.41-.82,4.24h-.75l-.76-.38c-.26-5.48-.38-8.7-.38-9.67l.38-22.74h1.51q.83,8.85.82,25.46v.76l-.37,1.95A.33.33,0,0,1-84.61,268.75Zm-6.56-1.58v-5.75q0-7.26.37-21.22l.76-.38c.38,0,.76.5,1.14,1.52q0,11.55.44,20.84-.44,4.74-.44,9.23a2.74,2.74,0,0,0-.76,1.58H-90c-.5,0-.88-1-1.13-3.1h.37Zm-1.58-6.95v2q0,3.29-.38,10.43l-.76.38q-1.08,0-1.52-11.57a12.82,12.82,0,0,0,.38-3.09v-5.81q0-3.86.38-11.56l.76-.38.76.38Q-92.75,254.35-92.75,260.22Zm-6.51,2.72a.34.34,0,0,0,.38-.38v-1.14l-.38-.82a.33.33,0,0,0,.38-.38v-8.46l.38-1.9c-.26,0-.38-.14-.38-.44a48.18,48.18,0,0,0,.38-5.37v-1.51h.75l.76.38q0,5.43.38,19.26-.37,7.33-.38,10.05c-.42,0-.67.25-.76.76q-.94,0-1.51-7.71c.25,0,.38-.4.38-1.2v-.38Zm-1.2-1.52-.76,11.19h-.38c-.59,0-1.09-3.48-1.52-10.43.51-7.11.76-12.13.76-15,0-.76.26-1.14.76-1.14h.38Q-100.84,250.62-100.46,261.42Zm-3.86.76-.75,10.43h-.38l-.76-.38q0-1.77-.38-8.53,0-1.4.38-10.8c0-.42.25-.68.76-.76h.38Zm-3.85-.38c0,.68-.25,4.15-.76,10.43h-.38l-.75-.44q0-1.71-.38-8.85c.25-6.27.38-9.75.38-10.42,0-.42.25-.68.75-.76h.38C-108.93,252.26-108.67,255.61-108.17,261.8Zm-3.85-.75v2.27c0,1.35-.26,4-.76,8.09v.38h-.76c0-1.69-.25-4.76-.76-9.23,0-.76.26-4.1.76-10v-.38h.76Q-112.78,252.52-112,261.05Zm-6.13,1.51.76-6.95v-1.13c0-.42.25-.68.76-.76.5,4,.75,6.74.75,8.08v.38a66.63,66.63,0,0,1-.75,7.71v.38h-.76v-2.34A38.13,38.13,0,0,0-118.15,262.56Zm42.77-4.23q0-7.71.38-23.12a3,3,0,0,0,1.2-.38l1.13.76q0,8.34.38,26.21-.37,7.14-.38,10.43a4.07,4.07,0,0,1-1.13.76h-.45q-1.12,0-1.13-10.05ZM-37.22,273H-70.39c-.42,0-.8-.66-1.14-2a31,31,0,0,0,.38-4.24v-8.46q0-7.83-.38-23.5l.38-.82q0-1.51,8.53-2.28,6.12,0,13.08,4.61,6.81,7.65,7.32,14.28a26.1,26.1,0,0,1,4.24-.76h1.13q8.4,0,10.81,10.74Q-26,271.16-37.22,273Z" transform="translate(139.14 -187.81)"/></svg>