<svg id="Layer_1" data-name="Layer 1" xmlns="http://www.w3.org/2000/svg" viewBox="0 0 130.62 130.62"><title>spotify_icon</title><path d="M-603.77,312.81a65.31,65.31,0,0,0-65.31,65.31,65.31,65.31,0,0,0,65.31,65.31,65.31,65.31,0,0,0,65.31-65.31A65.31,65.31,0,0,0-603.77,312.81Zm38.12,59a11.42,11.42,0,0,1-2.71-.38,96.65,96.65,0,0,0-45.17-10.68h-.76a108.54,108.54,0,0,0-27.23,3.79v-.38q-4.43,0-4.92-5a3.78,3.78,0,0,1,.37-1.89q0-5.75,26.41-7.27h1.9l2-.38a.33.33,0,0,0,.38.38l.76-.38q9.92.39,19.9,1.52,33.67,7.2,33.67,14.53Q-561.79,371.78-565.65,371.77Zm-50.16,25.71q-5.75,0-21.47,2.27H-638c-.76,0-1.39-1.15-1.9-3.47v-1.14q0-3.34,21.42-5h7.26q2.71,0,11.88,1.2,22.23,6.19,22.24,11.06v.44c0,1.94-1.16,3.07-3.48,3.41h-1.14q-13.71-8.77-32.91-8.78Zm42.46-7.33a10.81,10.81,0,0,1-2.66-.38q-19.71-10.29-38.28-10.29-7.58,0-22.24,3h-2.27c-2.06,0-3.35-1.54-3.85-4.61a2.64,2.64,0,0,0,.38-1.14q0-4.54,26-6.51,14.28.76,18.39,2,27.6,6.26,28.36,13.77C-570,388.76-571.29,390.15-573.35,390.15Z" transform="translate(669.08 -312.81)"/></svg>