<?xml version="1.0" encoding="utf-8"?>
<!-- Generator: Adobe Illustrator 23.0.1, SVG Export Plug-In . SVG Version: 6.00 Build 0)  -->
<svg version="1.1" id="Layer_1" xmlns="http://www.w3.org/2000/svg" xmlns:xlink="http://www.w3.org/1999/xlink" x="0px" y="0px"
	 viewBox="0 0 130.6 130.6" style="enable-background:new 0 0 130.6 130.6;" xml:space="preserve">
<title>spotify_icon2</title>
<g>
	<path d="M77.5,64.7c-7.2-3.7-14.4-7.3-21.6-11C54.6,53,54,53.4,54,54.8c0,3.5,0,7,0,10.5c0,3.6,0,7.1,0,10.7c0,1.2,0.6,1.5,1.7,1.1
		c1.2-0.6,2.5-1.2,3.7-1.8c6-2.9,12.1-5.7,18.1-8.7c0.4-0.2,0.8-0.7,0.8-1C78.3,65.3,77.8,64.9,77.5,64.7z"/>
	<path d="M65.3,0C29.2,0,0,29.2,0,65.3s29.2,65.3,65.3,65.3s65.3-29.2,65.3-65.3S101.4,0,65.3,0z M106.4,77.1
		c-0.1,7.3-3.6,12.6-10.2,15.8c-2.3,1.1-4.8,1.5-7.3,1.5c-7.9,0-15.7,0-23.6,0c-7.9,0-15.7,0-23.6,0c-4.1,0-7.8-1.1-11-3.7
		c-3.7-2.9-5.8-6.8-6.4-11.4c-0.1-1-0.1-2-0.1-3c0-7.5,0-15.1,0-22.6c0-5.3,1.9-9.9,6-13.4c3.2-2.8,7-4.1,11.2-4.1
		c15.9,0,31.9,0,47.8,0c7.6,0,13.8,4.5,16.3,11.7c0.6,1.8,0.9,3.7,0.9,5.6C106.4,61.4,106.5,69.3,106.4,77.1z"/>
</g>
</svg>
